<svg width="91" height="27" fill="none" xmlns="http://www.w3.org/2000/svg"><path fill-rule="evenodd" clip-rule="evenodd" d="M0 5.4a5.38 5.38 0 011.591-3.818A5.45 5.45 0 015.433 0h80.134a5.45 5.45 0 013.842 1.582A5.384 5.384 0 0191 5.4v16.2a5.384 5.384 0 01-1.591 3.818A5.45 5.45 0 0185.567 27H5.433a5.45 5.45 0 01-3.842-1.582A5.384 5.384 0 010 21.6V5.4zm18.336 8.026a3.46 3.46 0 01.455-1.67A3.47 3.47 0 0120 10.51a3.596 3.596 0 00-2.818-1.512c-1.19-.122-2.337.702-2.941.702-.611 0-1.548-.689-2.547-.675a3.767 3.767 0 00-1.833.545 3.743 3.743 0 00-1.325 1.372c-1.371 2.355-.353 5.805.958 7.708.652.932 1.42 1.971 2.418 1.93.984-.04 1.35-.62 2.533-.62 1.168 0 1.514.62 2.533.6 1.052-.02 1.711-.938 2.342-1.876a7.676 7.676 0 001.073-2.174 3.37 3.37 0 01-1.493-1.232 3.34 3.34 0 01-.564-1.846v-.006zm-1.929-5.677c.57-.685.851-1.564.781-2.45a3.511 3.511 0 00-2.261 1.16 3.25 3.25 0 00-.808 2.363 2.907 2.907 0 002.288-1.08v.007zm15.715 10.57l.774 2.268h1.385l-3.049-8.383H29.82l-3.043 8.383h1.358l.774-2.267h3.213zm-2.88-1.046l1.257-3.678h.034l1.256 3.678h-2.547zm11.613.257c0-1.89-1.032-3.119-2.587-3.119a2.19 2.19 0 00-1.963 1.08h-.02V14.48h-1.223v8.127h1.263v-3.024h.027a2.095 2.095 0 001.935 1.066c1.543 0 2.568-1.215 2.568-3.118zm-1.297 0c0 1.248-.645 2.058-1.63 2.058-.958 0-1.61-.83-1.61-2.058 0-1.215.653-2.052 1.617-2.052.978 0 1.623.81 1.623 2.052zm8.06 0c0-1.89-1.025-3.119-2.58-3.119a2.19 2.19 0 00-1.97 1.08h-.02V14.48h-1.222v8.127h1.263v-3.024h.034a2.096 2.096 0 001.935 1.066c1.542 0 2.56-1.215 2.56-3.118zm-1.29 0c0 1.248-.645 2.058-1.63 2.058-.964 0-1.609-.83-1.609-2.058 0-1.215.645-2.052 1.61-2.052.984 0 1.63.81 1.63 2.052zm5.766.722h-1.29c.081 1.512 1.344 2.47 3.212 2.47 1.997 0 3.26-.978 3.26-2.551 0-1.222-.72-1.917-2.452-2.322l-.93-.223c-1.087-.27-1.535-.62-1.535-1.215 0-.742.7-1.248 1.718-1.248 1.019 0 1.711.506 1.786 1.336h1.277c-.04-1.444-1.263-2.43-3.05-2.43-1.799 0-3.069.986-3.069 2.43 0 1.168.72 1.89 2.268 2.261l1.094.27c1.093.264 1.562.648 1.562 1.303 0 .743-.775 1.296-1.834 1.296-1.114 0-1.922-.547-2.017-1.377zM60 13.028h-1.27v1.444h-.896v.992h.896v3.51c0 1.181.482 1.647 1.732 1.647.23 0 .468-.013.7-.06v-.986a4.035 4.035 0 01-.415.027c-.516 0-.747-.243-.747-.763v-3.375h1.168v-.992H60v-1.444zm1.84 4.502c0 1.93 1.134 3.132 2.92 3.132s2.92-1.202 2.92-3.132c0-1.924-1.14-3.132-2.92-3.132-1.779 0-2.92 1.215-2.92 3.132zm4.55 0c0 1.323-.61 2.092-1.63 2.092-1.018 0-1.63-.77-1.63-2.092 0-1.317.612-2.093 1.63-2.093 1.02 0 1.63.777 1.63 2.093zm2.33-3.058v6.115h1.256v-3.624a1.256 1.256 0 01.78-1.318c.17-.07.353-.101.537-.093.19 0 .388.02.57.081v-1.174a1.954 1.954 0 00-.434-.048 1.473 1.473 0 00-.936.29c-.27.2-.462.486-.544.81h-.027v-1.039H68.72zm8.964 4.32H76.48a1.4 1.4 0 01-1.426.857 1.613 1.613 0 01-1.216-.495 1.59 1.59 0 01-.435-1.233v-.08h4.347v-.426c0-1.856-1.073-3.017-2.771-3.017-1.732 0-2.852 1.242-2.852 3.159 0 1.91 1.113 3.105 2.906 3.105 1.386 0 2.472-.763 2.649-1.87zm-4.272-1.823c0-.411.165-.806.458-1.097.293-.291.69-.455 1.104-.455a1.49 1.49 0 011.1.447 1.47 1.47 0 01.415 1.105H73.41zM27.667 7.588v.547h.557c.563 0 .882.25.882.648 0 .391-.34.675-.862.675-.523 0-.883-.25-.917-.635h-.611a1.33 1.33 0 00.51.918 1.348 1.348 0 001.018.27 1.367 1.367 0 001.353-.688 1.34 1.34 0 00.161-.506.935.935 0 00-.25-.672.946.946 0 00-.653-.3v-.048a.945.945 0 00.734-.925c0-.64-.557-1.08-1.359-1.08a1.278 1.278 0 00-1.29.68 1.257 1.257 0 00-.136.495h.591a.711.711 0 01.53-.61.724.724 0 01.285-.018c.475 0 .76.236.76.608a.671.671 0 01-.483.618.683.683 0 01-.277.023h-.543zm2.777 1.465a.913.913 0 00.638.87.93.93 0 00.38.041 1.03 1.03 0 00.918-.472h.047v.425h.584v-2.08c0-.64-.434-1.019-1.202-1.019-.692 0-1.188.338-1.25.858h.585c.068-.216.305-.338.638-.338.414 0 .625.176.625.5V8.1l-.829.047c-.726.04-1.134.358-1.134.905zm1.97-.257a.712.712 0 01-.509.635.724.724 0 01-.286.027c-.333 0-.57-.155-.57-.432 0-.27.19-.405.61-.439l.748-.047v.256h.007zm2.2-1.417h1.406v-.5h-2.01v3.038h.604V7.378zM39.68 8.39c0-.965-.489-1.566-1.27-1.566a1.065 1.065 0 00-.957.554h-.048v-.5h-.577v4.05h.597V9.457h.048a.99.99 0 00.944.506c.774 0 1.263-.607 1.263-1.573zm-.618 0c0 .648-.305 1.033-.822 1.033-.509 0-.821-.392-.821-1.026 0-.641.312-1.033.821-1.033.517 0 .815.385.815 1.026h.007zm1.426 2.612l.245.014c.625 0 .917-.236 1.175-.979l1.14-3.166h-.638l-.767 2.417h-.048l-.767-2.417h-.659l1.107 3.051-.04.149a.52.52 0 01-.558.425c-.066 0-.131-.004-.197-.013v.52h.007zm3.029-1.95c.054.614.598.918 1.27.918.747 0 1.25-.385 1.25-.959a.679.679 0 00-.598-.688v-.048a.632.632 0 00.475-.62c0-.514-.407-.838-1.14-.838a1.078 1.078 0 00-.784.203 1.066 1.066 0 00-.419.689h.584c.034-.244.286-.385.618-.385.374 0 .55.168.55.391 0 .257-.183.399-.543.399h-.455v.465h.455c.428 0 .652.135.652.432 0 .27-.244.446-.652.446-.353 0-.604-.135-.665-.405h-.598zm3.389.864h.597l1.413-2.106h.04v2.106h.598V6.878h-.597L47.55 8.971h-.048V6.878h-.597v3.038zm5.949-2.538v-.5h-2.533v.5h.964v2.538h.604V7.378h.965zM56.1 9.092h-.577a.731.731 0 01-.727.371.812.812 0 01-.776-.545.799.799 0 01-.039-.332v-.027h2.16v-.21c0-.958-.517-1.532-1.365-1.532a1.42 1.42 0 00-1.07.474 1.4 1.4 0 00-.343 1.113 1.369 1.369 0 00.34 1.109 1.385 1.385 0 001.073.457c.289.03.58-.04.822-.2.242-.161.42-.4.502-.678zm-2.119-.979a.773.773 0 01.484-.73c.096-.04.2-.06.304-.06a.744.744 0 01.713.49.728.728 0 01.04.3h-1.541zm4.679-1.235v3.038h1.392c.672 0 1.073-.345 1.073-.878a.693.693 0 00-.652-.702V8.29a.659.659 0 00.516-.641c0-.473-.353-.776-.95-.776H58.66v.006zm.598.46h.665c.32 0 .476.148.476.39 0 .257-.177.392-.544.392h-.597v-.783zm0 1.228h.638c.407 0 .625.135.625.445 0 .284-.19.446-.544.446h-.72v-.891z" fill="#fff"/></svg>