<svg width="30" height="22" fill="none" xmlns="http://www.w3.org/2000/svg"><path fill-rule="evenodd" clip-rule="evenodd" d="M0 19.636c0 .195.145.689.199.83.248.657 1.072 1.352 1.974 1.352h25.654c1.22 0 2.173-1.165 2.173-2.182 0-1.021-.955-2.181-2.173-2.181H2.173c-.896 0-1.707.693-1.955 1.302-.068.166-.218.68-.218.88zm0-8.727c0 1.022.955 2.182 2.173 2.182h25.654c.695 0 1.127-.307 1.491-.663.203-.2.359-.381.464-.64.683-1.676-.664-3.06-1.955-3.06H2.173c-.896 0-1.707.692-1.955 1.302-.068.166-.218.68-.218.88zm0-8.727c0 .195.145.688.199.83.248.657 1.072 1.352 1.974 1.352h25.654c.695 0 1.127-.308 1.491-.664.863-.845.89-2.158.035-3.003C28.98.33 28.548 0 27.827 0H2.173C.953 0 0 1.165 0 2.182z" fill="#fff"/></svg>