<svg width="90" height="27" fill="none" xmlns="http://www.w3.org/2000/svg"><path fill-rule="evenodd" clip-rule="evenodd" d="M0 5.4a5.41 5.41 0 011.574-3.818A5.36 5.36 0 015.374 0h79.253a5.36 5.36 0 013.8 1.582A5.414 5.414 0 0190 5.4v16.2a5.414 5.414 0 01-1.574 3.818 5.36 5.36 0 01-3.8 1.582H5.374a5.36 5.36 0 01-3.8-1.582A5.414 5.414 0 010 21.6V5.4zm6.716 14.513c0 .445.262.83.638 1.012L14.81 13.5 7.354 6.075a1.124 1.124 0 00-.638 1.013v12.825zm10.451-4.057l-1.72-1.715-6.427 6.4 8.147-4.685zm2.539-3.254l-1.72-.992-1.893 1.89 1.894 1.89 1.726-.999a1.126 1.126 0 00.435-.896 1.132 1.132 0 00-.442-.893zM9.026 6.46l6.422 6.399 1.72-1.715L9.026 6.46zm61.02 14.418h1.242v-8.424h-1.242v8.424zm11.182-5.387l-1.423 3.645h-.04l-1.478-3.645H76.95l2.216 5.103-1.262 2.835H79.2l3.412-7.931h-1.384v-.007zM74.19 19.92c-.403 0-.974-.202-.974-.715 0-.648.705-.898 1.316-.898.544 0 .806.121 1.135.284a1.52 1.52 0 01-.491.942 1.507 1.507 0 01-.986.387zm.147-4.617c-.9 0-1.827.405-2.216 1.29l1.101.472c.236-.473.672-.621 1.142-.621.638 0 1.29.391 1.303 1.08v.088a2.722 2.722 0 00-1.296-.324c-1.189 0-2.398.661-2.398 1.896 0 1.128.974 1.857 2.069 1.857a1.74 1.74 0 001.578-.824h.047v.648h1.196v-3.226c0-1.499-1.102-2.336-2.526-2.336zm-7.677 1.215h-1.766v-2.889h1.766a1.438 1.438 0 011.345.888c.074.177.112.366.113.557 0 .648-.524 1.444-1.458 1.444zm-.026-4.063h-2.976v8.424h1.243v-3.193h1.733c1.376 0 2.726-1.012 2.726-2.612 0-1.607-1.35-2.62-2.726-2.62zm-16.227 7.472c-.86 0-1.579-.729-1.579-1.728 0-1.012.719-1.755 1.579-1.755.846 0 1.51.742 1.51 1.755 0 .999-.664 1.728-1.51 1.728zm1.424-3.962h-.04a1.955 1.955 0 00-1.492-.642 2.815 2.815 0 00-1.94.883 2.843 2.843 0 00-.773 1.993 2.836 2.836 0 00.779 1.982 2.808 2.808 0 001.934.873c.672 0 1.21-.303 1.491-.655h.04v.412c0 1.1-.577 1.688-1.51 1.688-.76 0-1.23-.554-1.425-1.026l-1.08.459a2.691 2.691 0 002.505 1.694c1.457 0 2.686-.87 2.686-2.983v-5.15h-1.175v.472zm2.041 4.914h1.243v-8.424h-1.25v8.424h.007zm3.077-2.781a1.575 1.575 0 01.39-1.145 1.558 1.558 0 011.087-.523c.497 0 .914.25 1.055.608l-2.532 1.06zm3.855-.952c-.235-.641-.954-1.822-2.418-1.822-1.458 0-2.673 1.16-2.673 2.861a2.806 2.806 0 00.797 2.034 2.778 2.778 0 002.01.835 2.803 2.803 0 002.364-1.269l-.967-.654a1.617 1.617 0 01-1.397.796c-.631 0-1.075-.297-1.37-.877l3.788-1.58-.134-.324zm-30.15-.945v1.215h2.874a2.558 2.558 0 01-.658 1.532 2.926 2.926 0 01-2.216.891 3.148 3.148 0 01-2.254-.955 3.181 3.181 0 01-.903-2.285A3.192 3.192 0 0128 14.842a3.167 3.167 0 011.382-1.188 3.149 3.149 0 013.434.582l.853-.857a4.17 4.17 0 00-3.015-1.229 4.462 4.462 0 00-3.14 1.307 4.506 4.506 0 00-1.32 3.148c0 2.45 2.035 4.448 4.46 4.448 1.31 0 2.297-.439 3.07-1.248.7-.779 1.07-1.8 1.034-2.849 0-.277-.02-.54-.068-.756h-4.036zm7.374 3.726c-.86 0-1.598-.722-1.598-1.741 0-1.033.739-1.735 1.598-1.735.853 0 1.599.702 1.599 1.735 0 1.019-.739 1.741-1.599 1.741zm0-4.603a2.79 2.79 0 00-2.023.826 2.817 2.817 0 00-.818 2.035c0 1.654 1.276 2.87 2.841 2.87 1.565 0 2.841-1.216 2.841-2.87 0-1.66-1.276-2.862-2.84-2.862zm6.2 4.603c-.86 0-1.599-.722-1.599-1.741 0-1.033.739-1.735 1.599-1.735s1.591.702 1.591 1.735c0 1.019-.738 1.741-1.598 1.741h.007zm0-4.603a2.79 2.79 0 00-2.024.826 2.815 2.815 0 00-.817 2.035c0 1.654 1.276 2.87 2.834 2.87 1.565 0 2.84-1.216 2.84-2.87 0-1.66-1.275-2.862-2.833-2.862zm-16.872-7.73v.547h.55c.558 0 .874.25.874.649 0 .391-.336.675-.853.675-.517 0-.873-.25-.907-.635h-.604a1.34 1.34 0 00.98 1.156 1.3 1.3 0 00.53.032 1.337 1.337 0 001.34-.688c.085-.157.14-.329.159-.507a.94.94 0 00-.248-.67.932.932 0 00-.646-.302v-.047a.933.933 0 00.726-.925c0-.641-.551-1.08-1.344-1.08a1.25 1.25 0 00-1.276.68 1.267 1.267 0 00-.134.495h.584a.719.719 0 01.524-.61.709.709 0 01.282-.018c.47 0 .752.236.752.607a.677.677 0 01-.478.618.669.669 0 01-.274.024h-.537zm2.747 1.466a.92.92 0 00.63.87c.122.04.25.054.377.04a1.01 1.01 0 00.907-.472h.047v.425h.578v-2.08c0-.64-.43-1.019-1.189-1.019-.685 0-1.175.338-1.236.857h.578c.067-.216.302-.337.631-.337.41 0 .618.175.618.5v.263l-.82.047c-.718.04-1.121.358-1.121.905zm1.948-.257a.716.716 0 01-.786.662c-.33 0-.564-.156-.564-.433 0-.27.188-.405.604-.438l.739-.047v.256h.007zm2.176-1.417h1.39v-.5H33.63v3.037h.598V7.384zm5.01 1.012c0-.965-.483-1.566-1.256-1.566a1.044 1.044 0 00-.947.553h-.047v-.499h-.57v4.05h.59V9.463h.047c.188.338.551.54.934.507.766 0 1.25-.608 1.25-1.573zm-.61 0c0 .648-.303 1.033-.814 1.033-.503 0-.812-.392-.812-1.026 0-.641.309-1.033.812-1.033.51 0 .806.385.806 1.026h.007zm1.41 2.612l.241.014c.618 0 .907-.236 1.162-.979l1.129-3.166h-.632l-.759 2.417h-.047l-.759-2.417h-.651l1.095 3.051-.04.149a.52.52 0 01-.551.425 1.41 1.41 0 01-.195-.014v.52h.007zm2.995-1.95c.054.614.591.918 1.256.918.739 0 1.236-.385 1.236-.959a.684.684 0 00-.591-.689v-.047a.625.625 0 00.47-.62c0-.514-.403-.838-1.128-.838a1.057 1.057 0 00-.775.202 1.07 1.07 0 00-.414.69h.577c.034-.244.283-.386.612-.386.369 0 .544.17.544.392 0 .256-.182.398-.538.398h-.45v.466h.45c.424 0 .645.135.645.432 0 .27-.242.445-.645.445-.349 0-.597-.134-.658-.404h-.59zm3.352.864h.59l1.398-2.107h.04v2.106h.591V6.885h-.591l-1.39 2.092h-.047V6.885h-.591v3.037zm5.883-2.538v-.5H49.77v.5h.953v2.537h.598V7.384h.954-.007zm3.21 1.714h-.57a.727.727 0 01-.719.371.796.796 0 01-.767-.545.805.805 0 01-.039-.332v-.027h2.136v-.21c0-.958-.51-1.532-1.35-1.532a1.391 1.391 0 00-1.058.474 1.406 1.406 0 00-.34 1.113 1.384 1.384 0 00.338 1.108 1.37 1.37 0 001.06.457 1.225 1.225 0 001.31-.877zm-2.095-.979a.78.78 0 01.478-.731.77.77 0 01.301-.059.729.729 0 01.705.489.732.732 0 01.04.301h-1.524zm4.628-1.235v3.037h1.377c.664 0 1.06-.344 1.06-.877a.697.697 0 00-.644-.702v-.047a.651.651 0 00.51-.641c0-.473-.349-.777-.94-.777H58.01v.007zm.59.459h.659c.316 0 .47.148.47.391 0 .257-.175.392-.537.392H58.6v-.783zm0 1.228h.632c.403 0 .618.136.618.446 0 .284-.188.445-.537.445H58.6v-.89z" fill="#fff"/></svg>