<svg width="42" height="56" fill="none" xmlns="http://www.w3.org/2000/svg"><path fill-rule="evenodd" clip-rule="evenodd" d="M.992 45.59h5.325v1.268H2.26v2.394h3.871v1.269h-3.87v3.377h4.056v1.27H.99v-9.58zm39.388 3.662v1.269h-3.87v3.377h4.056v1.27H35.24v-9.58h5.326v1.27H36.51v2.393h3.871zM27.632 45.42c2.693 0 4.876 2.232 4.876 4.985s-2.183 4.984-4.876 4.984c-2.692 0-4.875-2.231-4.875-4.984s2.183-4.985 4.875-4.985zm0 1.292c1.922 0 3.48 1.653 3.48 3.693s-1.558 3.692-3.48 3.692c-1.92 0-3.479-1.653-3.479-3.692 0-2.04 1.558-3.693 3.48-3.693zm-12.736-1.107l-1.542-.01 4.173 9.991 4.085-9.911h-1.454l-2.562 6.415-2.7-6.485zm-1.927 8.293v1.27H8.883v-9.58h1.27v8.309h2.816zM.335 16.883c.124 0 6.775 16.313 20.046 24.764-6.35-9.26-8.625-15.56-8.881-21.574-.366-8.593 4.237-16.428 5.076-19.116l2.635-.11c.06-.051-2.84 6.466-4.18 8.98 1.144.906 3.443 10.55-.738 16.728 1.432 4.626 3.868 9.324 5.108 11.218 3.868-.839 17.094-6.709 21.513-13.596 0 0-.142 15.947.148 18.05 0 0-35.349-.275-35.479-.236 0 0 9.225-2.808 9.168-2.853-3.474-2.797-5.857-5.57-5.895-5.605-1 .934-6.217 5.827-8.567 6.473 0-1.43.046-21.692.046-23.123z" fill="#0C729D"/></svg>