<svg width="10" height="13" fill="none" xmlns="http://www.w3.org/2000/svg"><path fill-rule="evenodd" clip-rule="evenodd" d="M0 10.435c0 .893.05 1.49.708 2.077.13.117.308.234.47.303.227.098.504.185.813.185h6.018c.295 0 .59-.078.797-.177a1.91 1.91 0 00.603-.413c.613-.658.59-1.232.59-2.076a7.65 7.65 0 00-.177-1.508c-.193-.919-.614-1.878-1.43-2.31a2.233 2.233 0 00-1.038-.245c-.516 0-1.65 1.745-3.678.61-.334-.187-.72-.61-1.1-.61-1.385 0-2.167 1.28-2.402 2.6-.045.249-.092.488-.12.734-.032.273-.054.54-.054.83zm2.037-7.464c0 .399-.005.574.089.97.027.114.05.18.084.29l.16.385c.707 1.407 2.274 2.05 3.733 1.391.189-.085.511-.303.66-.453.33-.336.59-.615.794-1.094.589-1.38.181-2.955-.92-3.862a2.686 2.686 0 00-.946-.497A2.783 2.783 0 005.06 0h-.278c-.39.018-.775.113-1.098.287-.914.495-1.647 1.549-1.647 2.684z" fill="#626262"/></svg>