<svg width="10" height="13" fill="none" xmlns="http://www.w3.org/2000/svg"><path fill-rule="evenodd" clip-rule="evenodd" d="M3.411 4.333h1.172V3.115c0-.69.834-.669.834 0v1.218h1.172c.65 0 .65.867 0 .867H5.417v1.219c0 .677-.834.677-.834 0V5.2H3.411c-.642 0-.663-.867 0-.867zM0 5.01v.353c0 .72.521 1.888.796 2.367.236.41.298.544.584.99.711 1.11.975 1.355 1.656 2.26l.903 1.065c.071.074.127.123.19.208.121.163.636.747.819.747.321 0 .31-.095.54-.332.12-.124.286-.275.386-.41l.358-.415c.174-.216.537-.6.721-.847l.7-.898a18.91 18.91 0 001.565-2.38c.341-.613.782-1.707.782-2.41 0-1.498-.461-2.74-1.465-3.785C7.935.9 7.468.621 6.693.298 6.091.047 5.482 0 4.818 0 3.024 0 1.188 1.3.469 2.98.237 3.522 0 4.232 0 5.01z" fill="#626262"/></svg>