<svg width="9" height="13" fill="none" xmlns="http://www.w3.org/2000/svg"><path fill-rule="evenodd" clip-rule="evenodd" d="M4.889 6.018H2.493V1.955h2.735c.521 0 1.038.286 1.3.565.641.679.768 1.569.362 2.423a2.364 2.364 0 01-.312.46c-.048.054-.093.078-.146.127-.382.351-.835.488-1.543.488zm-4.26-.026c-.355 0-.629-.058-.629.076v1.905h.63v.838c-.356 0-.63-.058-.63.076v1.904h.63V13h1.863v-2.209h2.323v-1.98H2.493v-.838h2.59c.926 0 1.543-.228 2.231-.68.177-.117.286-.239.407-.336.4-.32.701-.842.928-1.312.109-.226.182-.482.248-.755.257-1.062.017-2.268-.537-3.123-.151-.234-.242-.335-.415-.53a3.674 3.674 0 00-1.72-1.09C6.005.082 5.655 0 5.421 0H.63v5.992z" fill="#626262"/></svg>