<svg width="25" height="25" fill="none" xmlns="http://www.w3.org/2000/svg"><path fill-rule="evenodd" clip-rule="evenodd" d="M21.875 10.938c0 2.044-.701 3.542-1.834 5.001l-.977.977c-.2.155-.352.28-.55.426-.786.58-1.756.951-2.713 1.194l-1.739.217c-.232 0-.22-.041-.439-.052-2.36-.114-4.652-1.35-5.957-3.32-1.877-2.833-1.877-6.054 0-8.887.452-.683 1.27-1.5 1.953-1.953 1.22-.808 2.497-1.328 4.005-1.366.24-.006.232-.05.438-.05.207 0 .199.044.439.05.942.024 1.94.263 2.768.65.985.458 2.112 1.261 2.772 2.11.155.2.28.353.426.552.837 1.134 1.408 2.887 1.408 4.45zm-18.75-.196c0 1.664.187 2.604.665 3.974.577 1.657 1.079 2 1.483 2.764l-4.162 4.188C.433 22.346 0 22.55 0 23.584 0 24.262.738 25 1.416 25c.915 0 1.166-.309 1.941-1.086l4.211-4.139c.176.047 2.672 2.1 6.202 2.1 1.853 0 3.443-.275 4.866-.993 1.595-.804 1.866-1.04 3.154-2.168l.908-1.045c.104-.139.19-.247.29-.393C24.151 15.573 25 13.536 25 11.279c0-1.913-.249-3.435-1.01-4.948-.3-.597-.33-.702-.69-1.263l-1.485-1.883-1.823-1.448C17.918.472 16.297 0 13.769 0c-1.497 0-3.305.5-4.313 1.009-1.05.53-1.569.831-2.44 1.564-.281.236-.45.406-.705.662-1.942 1.942-3.186 4.631-3.186 7.507z" fill="#fff"/></svg>