<svg width="15" height="14" fill="none" xmlns="http://www.w3.org/2000/svg"><path fill-rule="evenodd" clip-rule="evenodd" d="M12.452 6.125c0 1.145-.393 1.984-1.029 2.801l-.548.547c-.111.087-.197.156-.309.238-.44.325-.984.533-1.52.669l-.976.122c-.13 0-.124-.023-.247-.03-1.324-.063-2.61-.755-3.341-1.859-1.053-1.586-1.053-3.39 0-4.976a4.4 4.4 0 011.095-1.094c.685-.453 1.401-.744 2.247-.765.135-.003.13-.028.246-.028.115 0 .11.025.246.028a4.033 4.033 0 011.552.364c.553.257 1.185.706 1.555 1.182.087.112.157.197.239.308.47.636.79 1.618.79 2.493zm-10.517-.11c0 .932.105 1.459.372 2.226.324.928.606 1.12.833 1.548L.805 12.134c-.38.38-.623.494-.623 1.073 0 .38.414.793.794.793.513 0 .654-.173 1.089-.608l2.362-2.318c.098.027 1.499 1.176 3.478 1.176 1.04 0 1.932-.154 2.73-.556.895-.45 1.047-.583 1.77-1.214l.509-.585c.058-.078.107-.139.163-.22.652-.954 1.128-2.095 1.128-3.359 0-1.071-.14-1.924-.566-2.77-.169-.335-.186-.394-.387-.708l-.834-1.054-1.022-.811C10.232.264 9.323 0 7.906 0c-.84 0-1.854.28-2.42.565-.589.296-.88.466-1.369.876-.158.132-.252.227-.395.37C2.632 2.9 1.935 4.406 1.935 6.017z" fill="#fff"/></svg>