<svg width="17" height="15" fill="none" xmlns="http://www.w3.org/2000/svg"><path d="M1.222 6.006c0 .146.015.21.024.237.004.012.008.02.013.026a.247.247 0 00.037.044l-.074-.307zm0 0c0-.063.023-.137.097-.214a.591.591 0 01.315-.167l2.305-.327s0 0 0 0c.2-.029.37-.05.52-.067l.046-.006c.13-.015.256-.03.366-.047.224-.033.567-.09.88-.31.317-.224.485-.529.589-.728.05-.096.104-.207.158-.32l.021-.043c.065-.132.137-.281.227-.455l.584-1.138h0c.065-.127.14-.287.205-.424l.091-.192c.092-.187.162-.313.225-.398h0M1.22 6.006L7.85 1.17M3.22 8.156l.007.007c.037.036.082.078.146.136l.059.054c.087.08.193.178.294.28.098.1.217.227.318.368.067.094.276.39.276.785 0 .184-.045.486-.083.732a112.102 112.102 0 01-.36 2.057l-.09.502-.567-4.92zm0 0l-.006-.006m.006.006l-.006-.006m0 0l-.854-.8-.569-.554-.27-.263L3.215 8.15zm.568 5.634h0a.48.48 0 00.164.155.56.56 0 00.27.06.773.773 0 00.138-.038c.114-.04.254-.101.42-.183.164-.08.332-.17.507-.264l.027-.014c.16-.086.331-.178.485-.253h0c.061-.03.12-.062.2-.104l.005-.003c.074-.04.166-.09.267-.138h0c.162-.078.289-.142.413-.212h0c.13-.074.316-.16.435-.216l.094-.045h0l.107-.054c.085-.043.183-.093.252-.124a1.62 1.62 0 01.587-.156 1.55 1.55 0 01.665.116c.16.063.326.152.48.235h0c.046.026.095.049.182.089l.004.002c.077.035.19.087.306.153h0c.124.07.251.134.413.212l.01.004.008.005.695.353a12.39 12.39 0 01.479.254c.153.084.286.156.416.218.274.132.42.164.492.164a.465.465 0 00.447-.402 5.387 5.387 0 00-.06-.498 33.724 33.724 0 00-.242-1.347c-.065-.34-.13-.685-.182-.986-.059-.336-.117-.714-.117-.98 0-.488.278-.82.39-.944.071-.078.141-.143.186-.183l.058-.052.015-.014.005-.004h0a36.354 36.354 0 00.231-.228l.304-.299c.195-.19.441-.424.61-.556 0 0 0 0 0 0h0a2.98 2.98 0 00.144-.134 27.9 27.9 0 00.313-.31l.056-.056c.205-.205.446-.446.603-.584m-11.282 7.36l4.84-12.608c.076.108.145.234.228.406l.075.16c.064.136.142.302.216.447h0c.138.265.264.512.395.768l.199.387h0c.105.206.181.361.249.5.036.074.069.143.104.212.08.16.196.393.368.585.225.252.486.381.745.45.165.045.365.072.525.093l.07.01h.002l2.287.327s0 0 0 0l.342.045.092.01c.123.017.21.03.284.044a.679.679 0 01.274.107h0a.395.395 0 01.171.259v.14a.52.52 0 01-.183.3m-11.282 7.36a.482.482 0 01-.06-.107m.06.107l-.06-.107m11.342-7.254l.66.75m-.66-.75s0 0 0 0l.66.75m0 0c-.13.116-.35.335-.566.551-.247.247-.491.491-.596.573l1.163-1.123zM7.852 1.17A.47.47 0 018.239 1m-.388.17L8.239 1M1.463 6.475l.059.057-.059-.057zm0 0a21.58 21.58 0 00-.167-.162l.167.162zm2.26 7.202a.145.145 0 01-.008-.045m.008.045l-.008-.045m0 0c-.001-.03 0-.082.012-.178m-.012.178l.012-.178m0 0a8.4 8.4 0 01.054-.335m-.054.335l.054-.335m0 0l.007-.042-.007.042zM8.239 1c.183.001.315.08.383.174L8.239 1z" stroke="#0C729D" stroke-width="2"/></svg>